<svg xmlns="http://www.w3.org/2000/svg" xmlns:xlink="http://www.w3.org/1999/xlink" width="79.164" height="10.386" viewBox="0 0 79.164 10.386"><defs><style>.a{fill:#fff;}.b{clip-path:url(#a);}.c{clip-path:url(#b);}.d{clip-path:url(#d);}</style><clipPath id="a"><path class="a" d="M9.969.971A4.041,4.041,0,0,1,8.795,1.3a2.077,2.077,0,0,0,.9-1.146,4.089,4.089,0,0,1-1.3.5A2.026,2.026,0,0,0,6.9,0,2.059,2.059,0,0,0,4.856,2.073a2.107,2.107,0,0,0,.053.472A5.78,5.78,0,0,1,.695.379a2.095,2.095,0,0,0,.633,2.767A2.024,2.024,0,0,1,.4,2.886v.026a2.068,2.068,0,0,0,1.64,2.033,2.045,2.045,0,0,1-.539.073,1.937,1.937,0,0,1-.385-.039,2.05,2.05,0,0,0,1.91,1.44,4.068,4.068,0,0,1-2.54.886A4.288,4.288,0,0,1,0,7.277a5.723,5.723,0,0,0,3.135.933,5.821,5.821,0,0,0,5.818-5.9l-.007-.268A4.115,4.115,0,0,0,9.969.971Z"/></clipPath><clipPath id="b"><path class="a" d="M4.89,9.8c-.967,0-1.649-.011-2.028-.032A3.014,3.014,0,0,1,.807,8.977a2.952,2.952,0,0,1-.775-2.06C.011,6.543,0,5.879,0,4.89S.011,3.237.032,2.862A2.977,2.977,0,0,1,.823.823,3.012,3.012,0,0,1,2.877.032C3.252.011,3.915,0,4.905,0S6.553.011,6.917.032A3.012,3.012,0,0,1,8.972.823a3,3,0,0,1,.791,2.055c.025.375.037,1.056.037,2.022s-.011,1.646-.032,2.028a3.014,3.014,0,0,1-.791,2.055,2.988,2.988,0,0,1-2.06.786C6.539,9.789,5.857,9.8,4.89,9.8ZM3.736.88c-.153,0-.354.006-.615.018a5.1,5.1,0,0,0-.657.064,2.576,2.576,0,0,0-.457.118,1.676,1.676,0,0,0-.929.936,2.523,2.523,0,0,0-.119.456A5.1,5.1,0,0,0,.9,3.131C.885,3.4.879,3.6.877,3.746s0,.38,0,.676V6.074c0,.162.006.369.018.615a5.1,5.1,0,0,0,.064.657,2.534,2.534,0,0,0,.119.457,1.677,1.677,0,0,0,.939.919,2.565,2.565,0,0,0,.456.118,5.008,5.008,0,0,0,.657.064c.267.01.468.016.615.018l.284,0,.392,0H6.074c.153,0,.354-.006.615-.018a5.008,5.008,0,0,0,.657-.064A2.576,2.576,0,0,0,7.8,8.722a1.679,1.679,0,0,0,.931-.931,2.565,2.565,0,0,0,.118-.456,5.1,5.1,0,0,0,.064-.658c.009-.23.016-.442.019-.615,0-.152,0-.38,0-.676V3.734c0-.155-.006-.362-.019-.615a5.1,5.1,0,0,0-.064-.657,2.576,2.576,0,0,0-.118-.457A1.68,1.68,0,0,0,7.8,1.075,2.576,2.576,0,0,0,7.346.956,5.1,5.1,0,0,0,6.689.892C6.423.882,6.222.875,6.074.873l-.284,0L5.4.873,4.9.88H3.736Zm1.176,6.4H4.89a2.349,2.349,0,0,1-1.673-.694A2.377,2.377,0,0,1,4.89,2.524h.022a2.349,2.349,0,0,1,1.672.692,2.392,2.392,0,0,1,0,3.368A2.35,2.35,0,0,1,4.912,7.277ZM4.9,3.356A1.544,1.544,0,1,0,6.444,4.9,1.549,1.549,0,0,0,4.9,3.356Zm2.475-.373a.557.557,0,1,1,.145-.019A.558.558,0,0,1,7.375,2.983Z"/></clipPath><clipPath id="d"><path class="a" d="M3.224,9.382V5.1H4.688l.22-1.668H3.224V2.37c0-.483.136-.812.843-.812h.9V.065A12.438,12.438,0,0,0,3.656,0,2.029,2.029,0,0,0,1.468,2.2v1.23H0V5.1H1.468V9.382Z"/></clipPath></defs><g transform="translate(12.315 0.586)"><path class="a" d="M4.89,9.8c-.967,0-1.649-.011-2.028-.032A3.014,3.014,0,0,1,.807,8.977a2.952,2.952,0,0,1-.775-2.06C.011,6.543,0,5.879,0,4.89S.011,3.237.032,2.862A2.977,2.977,0,0,1,.823.823,3.012,3.012,0,0,1,2.877.032C3.252.011,3.915,0,4.905,0S6.553.011,6.917.032A3.012,3.012,0,0,1,8.972.823a3,3,0,0,1,.791,2.055c.025.375.037,1.056.037,2.022s-.011,1.646-.032,2.028a3.014,3.014,0,0,1-.791,2.055,2.988,2.988,0,0,1-2.06.786C6.539,9.789,5.857,9.8,4.89,9.8ZM3.736.88c-.153,0-.354.006-.615.018a5.1,5.1,0,0,0-.657.064,2.576,2.576,0,0,0-.457.118,1.676,1.676,0,0,0-.929.936,2.523,2.523,0,0,0-.119.456A5.1,5.1,0,0,0,.9,3.131C.885,3.4.879,3.6.877,3.746s0,.38,0,.676V6.074c0,.162.006.369.018.615a5.1,5.1,0,0,0,.064.657,2.534,2.534,0,0,0,.119.457,1.677,1.677,0,0,0,.939.919,2.565,2.565,0,0,0,.456.118,5.008,5.008,0,0,0,.657.064c.267.01.468.016.615.018l.284,0,.392,0H6.074c.153,0,.354-.006.615-.018a5.008,5.008,0,0,0,.657-.064A2.576,2.576,0,0,0,7.8,8.722a1.679,1.679,0,0,0,.931-.931,2.565,2.565,0,0,0,.118-.456,5.1,5.1,0,0,0,.064-.658c.009-.23.016-.442.019-.615,0-.152,0-.38,0-.676V3.734c0-.155-.006-.362-.019-.615a5.1,5.1,0,0,0-.064-.657,2.576,2.576,0,0,0-.118-.457A1.68,1.68,0,0,0,7.8,1.075,2.576,2.576,0,0,0,7.346.956,5.1,5.1,0,0,0,6.689.892C6.423.882,6.222.875,6.074.873l-.284,0L5.4.873,4.9.88H3.736Zm1.176,6.4H4.89a2.349,2.349,0,0,1-1.673-.694A2.377,2.377,0,0,1,4.89,2.524h.022a2.349,2.349,0,0,1,1.672.692,2.392,2.392,0,0,1,0,3.368A2.35,2.35,0,0,1,4.912,7.277ZM4.9,3.356A1.544,1.544,0,1,0,6.444,4.9,1.549,1.549,0,0,0,4.9,3.356Zm2.475-.373a.557.557,0,1,1,.145-.019A.558.558,0,0,1,7.375,2.983Z" transform="translate(0 0)"/><g class="c" transform="translate(0 0)"><g transform="translate(-12.593 -12.361)"><rect class="a" width="35" height="35" transform="translate(0 0.092)"/></g></g></g><g transform="translate(69.195 1.173)"><path class="a" d="M9.969.971A4.041,4.041,0,0,1,8.795,1.3a2.077,2.077,0,0,0,.9-1.146,4.089,4.089,0,0,1-1.3.5A2.026,2.026,0,0,0,6.9,0,2.059,2.059,0,0,0,4.856,2.073a2.107,2.107,0,0,0,.053.472A5.78,5.78,0,0,1,.695.379a2.095,2.095,0,0,0,.633,2.767A2.024,2.024,0,0,1,.4,2.886v.026a2.068,2.068,0,0,0,1.64,2.033,2.045,2.045,0,0,1-.539.073,1.937,1.937,0,0,1-.385-.039,2.05,2.05,0,0,0,1.91,1.44,4.068,4.068,0,0,1-2.54.886A4.288,4.288,0,0,1,0,7.277a5.723,5.723,0,0,0,3.135.933,5.821,5.821,0,0,0,5.818-5.9l-.007-.268A4.115,4.115,0,0,0,9.969.971Z"/><g class="b"><g transform="translate(-12.474 -12.948)"><rect class="a" width="35" height="35" transform="translate(0 0.092)"/></g></g></g><g transform="translate(0 0.586)"><path class="a" d="M3.224,9.382V5.1H4.688l.22-1.668H3.224V2.37c0-.483.136-.812.843-.812h.9V.065A12.438,12.438,0,0,0,3.656,0,2.029,2.029,0,0,0,1.468,2.2v1.23H0V5.1H1.468V9.382Z"/><g class="d"><g transform="translate(-15.279 -12.361)"><rect class="a" width="35" height="35" transform="translate(0 0.092)"/></g></g></g><path class="a" d="M28.815,65.56A1.781,1.781,0,0,0,27.561,64.3a42.1,42.1,0,0,0-5.539-.3,42.1,42.1,0,0,0-5.539.3,1.782,1.782,0,0,0-1.253,1.262,20.058,20.058,0,0,0,0,6.869,1.755,1.755,0,0,0,1.253,1.241,42.1,42.1,0,0,0,5.539.3,42.1,42.1,0,0,0,5.539-.3,1.755,1.755,0,0,0,1.253-1.241,20.058,20.058,0,0,0,0-6.869ZM20.572,71.1V66.886l3.706,2.108L20.572,71.1Z" transform="translate(32.566 -64)"/><path class="a" d="M2.231,9.976H.165V3.322H2.231ZM1.2,2.415a1.2,1.2,0,1,1,1.2-1.208A1.207,1.207,0,0,1,1.2,2.415ZM9.964,9.976H7.9V6.737c0-.772-.016-1.762-1.074-1.762-1.074,0-1.239.839-1.239,1.706V9.976H3.525V3.322H5.507V4.23h.029A2.171,2.171,0,0,1,7.491,3.155c2.091,0,2.475,1.377,2.475,3.166V9.976Z" transform="translate(29.907 -0.01)"/></svg>