<svg xmlns="http://www.w3.org/2000/svg" xmlns:xlink="http://www.w3.org/1999/xlink" width="9.8" height="9.8" viewBox="0 0 9.8 9.8"><defs><style>.a{fill:#fff;}.b{clip-path:url(#a);}</style><clipPath id="a"><path class="a" d="M4.89,9.8c-.967,0-1.649-.011-2.028-.032A3.014,3.014,0,0,1,.807,8.977a2.952,2.952,0,0,1-.775-2.06C.011,6.543,0,5.879,0,4.89S.011,3.237.032,2.862A2.977,2.977,0,0,1,.823.823,3.012,3.012,0,0,1,2.877.032C3.252.011,3.915,0,4.905,0S6.553.011,6.917.032A3.012,3.012,0,0,1,8.972.823a3,3,0,0,1,.791,2.055c.025.375.037,1.056.037,2.022s-.011,1.646-.032,2.028a3.014,3.014,0,0,1-.791,2.055,2.988,2.988,0,0,1-2.06.786C6.539,9.789,5.857,9.8,4.89,9.8ZM3.736.88c-.153,0-.354.006-.615.018a5.1,5.1,0,0,0-.657.064,2.576,2.576,0,0,0-.457.118,1.676,1.676,0,0,0-.929.936,2.523,2.523,0,0,0-.119.456A5.1,5.1,0,0,0,.9,3.131C.885,3.4.879,3.6.877,3.746s0,.38,0,.676V6.074c0,.162.006.369.018.615a5.1,5.1,0,0,0,.064.657,2.534,2.534,0,0,0,.119.457,1.677,1.677,0,0,0,.939.919,2.565,2.565,0,0,0,.456.118,5.008,5.008,0,0,0,.657.064c.267.01.468.016.615.018l.284,0,.392,0H6.074c.153,0,.354-.006.615-.018a5.008,5.008,0,0,0,.657-.064A2.576,2.576,0,0,0,7.8,8.722a1.679,1.679,0,0,0,.931-.931,2.565,2.565,0,0,0,.118-.456,5.1,5.1,0,0,0,.064-.658c.009-.23.016-.442.019-.615,0-.152,0-.38,0-.676V3.734c0-.155-.006-.362-.019-.615a5.1,5.1,0,0,0-.064-.657,2.576,2.576,0,0,0-.118-.457A1.68,1.68,0,0,0,7.8,1.075,2.576,2.576,0,0,0,7.346.956,5.1,5.1,0,0,0,6.689.892C6.423.882,6.222.875,6.074.873l-.284,0L5.4.873,4.9.88H3.736Zm1.176,6.4H4.89a2.349,2.349,0,0,1-1.673-.694A2.377,2.377,0,0,1,4.89,2.524h.022a2.349,2.349,0,0,1,1.672.692,2.392,2.392,0,0,1,0,3.368A2.35,2.35,0,0,1,4.912,7.277ZM4.9,3.356A1.544,1.544,0,1,0,6.444,4.9,1.549,1.549,0,0,0,4.9,3.356Zm2.475-.373a.557.557,0,1,1,.145-.019A.558.558,0,0,1,7.375,2.983Z"/></clipPath></defs><path class="a" d="M4.89,9.8c-.967,0-1.649-.011-2.028-.032A3.014,3.014,0,0,1,.807,8.977a2.952,2.952,0,0,1-.775-2.06C.011,6.543,0,5.879,0,4.89S.011,3.237.032,2.862A2.977,2.977,0,0,1,.823.823,3.012,3.012,0,0,1,2.877.032C3.252.011,3.915,0,4.905,0S6.553.011,6.917.032A3.012,3.012,0,0,1,8.972.823a3,3,0,0,1,.791,2.055c.025.375.037,1.056.037,2.022s-.011,1.646-.032,2.028a3.014,3.014,0,0,1-.791,2.055,2.988,2.988,0,0,1-2.06.786C6.539,9.789,5.857,9.8,4.89,9.8ZM3.736.88c-.153,0-.354.006-.615.018a5.1,5.1,0,0,0-.657.064,2.576,2.576,0,0,0-.457.118,1.676,1.676,0,0,0-.929.936,2.523,2.523,0,0,0-.119.456A5.1,5.1,0,0,0,.9,3.131C.885,3.4.879,3.6.877,3.746s0,.38,0,.676V6.074c0,.162.006.369.018.615a5.1,5.1,0,0,0,.064.657,2.534,2.534,0,0,0,.119.457,1.677,1.677,0,0,0,.939.919,2.565,2.565,0,0,0,.456.118,5.008,5.008,0,0,0,.657.064c.267.01.468.016.615.018l.284,0,.392,0H6.074c.153,0,.354-.006.615-.018a5.008,5.008,0,0,0,.657-.064A2.576,2.576,0,0,0,7.8,8.722a1.679,1.679,0,0,0,.931-.931,2.565,2.565,0,0,0,.118-.456,5.1,5.1,0,0,0,.064-.658c.009-.23.016-.442.019-.615,0-.152,0-.38,0-.676V3.734c0-.155-.006-.362-.019-.615a5.1,5.1,0,0,0-.064-.657,2.576,2.576,0,0,0-.118-.457A1.68,1.68,0,0,0,7.8,1.075,2.576,2.576,0,0,0,7.346.956,5.1,5.1,0,0,0,6.689.892C6.423.882,6.222.875,6.074.873l-.284,0L5.4.873,4.9.88H3.736Zm1.176,6.4H4.89a2.349,2.349,0,0,1-1.673-.694A2.377,2.377,0,0,1,4.89,2.524h.022a2.349,2.349,0,0,1,1.672.692,2.392,2.392,0,0,1,0,3.368A2.35,2.35,0,0,1,4.912,7.277ZM4.9,3.356A1.544,1.544,0,1,0,6.444,4.9,1.549,1.549,0,0,0,4.9,3.356Zm2.475-.373a.557.557,0,1,1,.145-.019A.558.558,0,0,1,7.375,2.983Z" transform="translate(0 0)"/><g class="b" transform="translate(0 0)"><g transform="translate(-12.593 -12.361)"><rect class="a" width="35" height="35" transform="translate(0 0.092)"/></g></g></svg>