<svg xmlns="http://www.w3.org/2000/svg" width="68.34" height="68.34" viewBox="0 0 68.34 68.34"><defs><style>.a{fill:#7fa2cb;}.b{fill:#fff;}</style></defs><g transform="translate(-126.121 -952)"><path class="a" d="M34.17,0A34.17,34.17,0,1,1,0,34.17,34.17,34.17,0,0,1,34.17,0Z" transform="translate(126.121 952)"/><g transform="translate(143.541 970.76)"><g transform="translate(0 0)"><path class="b" d="M366.363,458.815H337.647a2.477,2.477,0,0,1-2.474-2.474V437.68a2.476,2.476,0,0,1,2.474-2.472h28.716a2.475,2.475,0,0,1,2.472,2.472v18.661A2.476,2.476,0,0,1,366.363,458.815Zm-28.716-22.5a1.363,1.363,0,0,0-1.362,1.361v18.661a1.364,1.364,0,0,0,1.362,1.362h28.716a1.364,1.364,0,0,0,1.362-1.362V437.68a1.363,1.363,0,0,0-1.362-1.361Z" transform="translate(-335.173 -435.208)"/><path class="b" d="M368.279,449.945H335.728a.555.555,0,0,1,0-1.11h32.551a.555.555,0,1,1,0,1.11Z" transform="translate(-335.173 -430.693)"/><path class="b" d="M360.123,460.107H340.634a.556.556,0,0,1-.555-.555v-2.407a.555.555,0,0,1,.555-.555h1.607c3.786,0,3.849-3.7,3.851-3.853a.555.555,0,0,1,.555-.554h0a.555.555,0,0,1,.554.555,4.784,4.784,0,0,1-4.962,4.962h-1.05V459h18.377v-1.3h-1.05a4.784,4.784,0,0,1-4.962-4.962.555.555,0,1,1,1.11,0c0,.156.065,3.851,3.851,3.851h1.606a.555.555,0,0,1,.557.555v2.407A.556.556,0,0,1,360.123,460.107Z" transform="translate(-333.548 -429.584)"/></g></g><g transform="translate(143.541 970.76)"><g transform="translate(0 0)"><path class="b" d="M366.363,458.815H337.647a2.477,2.477,0,0,1-2.474-2.474V437.68a2.476,2.476,0,0,1,2.474-2.472h28.716a2.475,2.475,0,0,1,2.472,2.472v18.661A2.476,2.476,0,0,1,366.363,458.815Zm-28.716-22.5a1.363,1.363,0,0,0-1.362,1.361v18.661a1.364,1.364,0,0,0,1.362,1.362h28.716a1.364,1.364,0,0,0,1.362-1.362V437.68a1.363,1.363,0,0,0-1.362-1.361Z" transform="translate(-335.173 -435.208)"/><path class="b" d="M368.279,449.945H335.728a.555.555,0,0,1,0-1.11h32.551a.555.555,0,1,1,0,1.11Z" transform="translate(-335.173 -430.693)"/><path class="b" d="M360.123,460.107H340.634a.556.556,0,0,1-.555-.555v-2.407a.555.555,0,0,1,.555-.555h1.607c3.786,0,3.849-3.7,3.851-3.853a.555.555,0,0,1,.555-.554h0a.555.555,0,0,1,.554.555,4.784,4.784,0,0,1-4.962,4.962h-1.05V459h18.377v-1.3h-1.05a4.784,4.784,0,0,1-4.962-4.962.555.555,0,1,1,1.11,0c0,.156.065,3.851,3.851,3.851h1.606a.555.555,0,0,1,.557.555v2.407A.556.556,0,0,1,360.123,460.107Z" transform="translate(-333.548 -429.584)"/></g></g></g></svg>