<svg xmlns="http://www.w3.org/2000/svg" xmlns:xlink="http://www.w3.org/1999/xlink" width="4.967" height="9.382" viewBox="0 0 4.967 9.382"><defs><style>.a{fill:#fff;}.b{clip-path:url(#a);}</style><clipPath id="a"><path class="a" d="M3.224,9.382V5.1H4.688l.22-1.668H3.224V2.37c0-.483.136-.812.843-.812h.9V.065A12.438,12.438,0,0,0,3.656,0,2.029,2.029,0,0,0,1.468,2.2v1.23H0V5.1H1.468V9.382Z"/></clipPath></defs><path class="a" d="M3.224,9.382V5.1H4.688l.22-1.668H3.224V2.37c0-.483.136-.812.843-.812h.9V.065A12.438,12.438,0,0,0,3.656,0,2.029,2.029,0,0,0,1.468,2.2v1.23H0V5.1H1.468V9.382Z"/><g class="b"><g transform="translate(-15.279 -12.361)"><rect class="a" width="35" height="35" transform="translate(0 0.092)"/></g></g></svg>