<svg xmlns="http://www.w3.org/2000/svg" width="68.328" height="68.328" viewBox="0 0 68.328 68.328"><defs><style>.a{fill:#7fa2cb;}.b{fill:#fff;}</style></defs><g transform="translate(-126.121 -1121.34)"><circle class="a" cx="34.164" cy="34.164" r="34.164" transform="translate(126.121 1121.34)"/><g transform="translate(136.581 1144.474)"><g transform="translate(0 0)"><path class="b" d="M447.778,207.8c-8.1,0-15.768-3.564-22.8-10.6a.73.73,0,0,1-.012-1.038c.413-.437,10.268-10.492,23.9-10.61,8.191-.047,15.957,3.493,23.062,10.6a.752.752,0,0,1,.012,1.038c-.413.437-10.28,10.492-23.912,10.61Zm-21.209-11.118c6.656,6.456,13.844,9.713,21.445,9.631,11.295-.106,20.123-7.6,22.318-9.643-6.6-6.4-13.726-9.631-21.221-9.631h-.224C437.592,187.131,428.764,194.625,426.569,196.679Z" transform="translate(-424.753 -185.549)"/><path class="b" d="M436.948,207.8a11.124,11.124,0,1,1,11.118-11.13A11.142,11.142,0,0,1,436.948,207.8Zm0-20.76a9.637,9.637,0,1,0,9.631,9.631A9.643,9.643,0,0,0,436.948,187.035Z" transform="translate(-413.251 -185.547)"/><path class="b" d="M432.076,197.6a5.8,5.8,0,1,1,5.807-5.807A5.81,5.81,0,0,1,432.076,197.6Zm0-10.115a4.314,4.314,0,1,0,4.32,4.308A4.32,4.32,0,0,0,432.076,187.486Z" transform="translate(-408.379 -180.676)"/><path class="b" d="M430.113,193.06a3.493,3.493,0,1,1,3.493-3.493A3.5,3.5,0,0,1,430.113,193.06Zm0-5.5a2.006,2.006,0,1,0,2.007,2.006A2,2,0,0,0,430.113,187.56Z" transform="translate(-404.609 -179.877)"/></g></g></g></svg>