<svg xmlns="http://www.w3.org/2000/svg" xmlns:xlink="http://www.w3.org/1999/xlink" width="9.969" height="8.21" viewBox="0 0 9.969 8.21"><defs><style>.a{fill:#fff;}.b{clip-path:url(#a);}</style><clipPath id="a"><path class="a" d="M9.969.971A4.041,4.041,0,0,1,8.795,1.3a2.077,2.077,0,0,0,.9-1.146,4.089,4.089,0,0,1-1.3.5A2.026,2.026,0,0,0,6.9,0,2.059,2.059,0,0,0,4.856,2.073a2.107,2.107,0,0,0,.053.472A5.78,5.78,0,0,1,.695.379a2.095,2.095,0,0,0,.633,2.767A2.024,2.024,0,0,1,.4,2.886v.026a2.068,2.068,0,0,0,1.64,2.033,2.045,2.045,0,0,1-.539.073,1.937,1.937,0,0,1-.385-.039,2.05,2.05,0,0,0,1.91,1.44,4.068,4.068,0,0,1-2.54.886A4.288,4.288,0,0,1,0,7.277a5.723,5.723,0,0,0,3.135.933,5.821,5.821,0,0,0,5.818-5.9l-.007-.268A4.115,4.115,0,0,0,9.969.971Z"/></clipPath></defs><path class="a" d="M9.969.971A4.041,4.041,0,0,1,8.795,1.3a2.077,2.077,0,0,0,.9-1.146,4.089,4.089,0,0,1-1.3.5A2.026,2.026,0,0,0,6.9,0,2.059,2.059,0,0,0,4.856,2.073a2.107,2.107,0,0,0,.053.472A5.78,5.78,0,0,1,.695.379a2.095,2.095,0,0,0,.633,2.767A2.024,2.024,0,0,1,.4,2.886v.026a2.068,2.068,0,0,0,1.64,2.033,2.045,2.045,0,0,1-.539.073,1.937,1.937,0,0,1-.385-.039,2.05,2.05,0,0,0,1.91,1.44,4.068,4.068,0,0,1-2.54.886A4.288,4.288,0,0,1,0,7.277a5.723,5.723,0,0,0,3.135.933,5.821,5.821,0,0,0,5.818-5.9l-.007-.268A4.115,4.115,0,0,0,9.969.971Z"/><g class="b"><g transform="translate(-12.474 -12.948)"><rect class="a" width="35" height="35" transform="translate(0 0.092)"/></g></g></svg>