<svg xmlns="http://www.w3.org/2000/svg" width="14.178" height="9.969" viewBox="0 0 14.178 9.969"><defs><style>.a{fill:#fff;}</style></defs><path class="a" d="M28.815,65.56A1.781,1.781,0,0,0,27.561,64.3a42.1,42.1,0,0,0-5.539-.3,42.1,42.1,0,0,0-5.539.3,1.782,1.782,0,0,0-1.253,1.262,20.058,20.058,0,0,0,0,6.869,1.755,1.755,0,0,0,1.253,1.241,42.1,42.1,0,0,0,5.539.3,42.1,42.1,0,0,0,5.539-.3,1.755,1.755,0,0,0,1.253-1.241,20.058,20.058,0,0,0,0-6.869ZM20.572,71.1V66.886l3.706,2.108L20.572,71.1Z" transform="translate(-14.933 -64)"/></svg>